<svg xmlns="http://www.w3.org/2000/svg" viewBox="0 0 124.7 31.5"><g fill="#007EE5"><path d="M0 1.4h8.4c7.2 0 11.7 4.6 11.7 11.9S15.6 25.1 8.4 25.1H0V1.4zm8.2 19.4c4.5 0 7-2.9 7-7.5s-2.5-7.5-7-7.5H4.9v15h3.3zm24.6-8.2c-.7-.4-1.5-.6-2.4-.6-1.6 0-2.9.8-3.3 2.4v10.7h-4.8V7.8h4.8v1.7c.7-1.2 2.2-2.1 3.9-2.1.8 0 1.5.2 1.8.3v4.9zm9.6 12.9c-5 0-8.5-3.7-8.5-9s3.4-9 8.5-9c5 0 8.5 3.7 8.5 9s-3.5 9-8.5 9zm0-14c-2.4 0-3.7 2.1-3.7 5s1.3 4.9 3.7 4.9c2.4 0 3.7-2.1 3.7-4.9 0-2.9-1.3-5-3.7-5zm15.3 20h-4.8V7.8h4.8v1.4c.8-.9 2.5-1.8 4.3-1.8 5 0 7.9 4.2 7.9 9 0 4.9-2.9 9-7.9 9-1.9 0-3.6-.9-4.3-1.8v7.9zm0-12.2c.6 1.2 1.9 2 3.2 2 2.6 0 4.1-2.1 4.1-4.8 0-2.8-1.5-4.9-4.1-4.9-1.4 0-2.7.9-3.2 2v5.7zm19.1 5.8H72V0h4.8v9.3c.8-.9 2.5-1.8 4.3-1.8 5 0 7.8 4.1 7.8 9s-2.8 9-7.8 9c-1.9 0-3.6-.9-4.3-1.8v1.4zm0-5.8c.5 1.2 1.8 2 3.2 2 2.6 0 4.1-2.1 4.1-4.8 0-2.8-1.5-4.9-4.1-4.9-1.4 0-2.7.9-3.2 2v5.7zm22.4 6.3c-5 0-8.5-3.7-8.5-9s3.4-9 8.5-9c5 0 8.5 3.7 8.5 9-.1 5.3-3.5 9-8.5 9zm0-14c-2.4 0-3.7 2.1-3.7 5s1.3 4.9 3.7 4.9c2.4 0 3.7-2.1 3.7-4.9 0-2.9-1.3-5-3.7-5z"/><path d="M118.4 16.2l6.3 8.9h-5.3l-3.7-5.4-3.8 5.4h-5l6.2-8.8-5.9-8.5h5.3l3.3 4.9 3.4-4.9h5l-5.8 8.4z"/></g></svg>